<?xml version="1.0" encoding="iso-8859-1"?>
<!-- Generator: Adobe Illustrator 19.0.0, SVG Export Plug-In . SVG Version: 6.00 Build 0)  -->
<svg version="1.1" id="Capa_1" xmlns="http://www.w3.org/2000/svg" xmlns:xlink="http://www.w3.org/1999/xlink" x="0px" y="0px"
	 viewBox="0 0 472.014 472.014" style="enable-background:new 0 0 472.014 472.014;" xml:space="preserve">
<path style="fill:#48A6E8;" d="M312.007,47.518c-1.416,0-2.816,0.08-4.2,0.208C305.6,19.248,280.724-2.05,252.246,0.157
	c-19.231,1.49-36.035,13.558-43.59,31.305c-26.541-15.879-60.928-7.235-76.807,19.305s-7.235,60.928,19.305,76.807
	c8.719,5.216,18.693,7.962,28.854,7.944h132c24.301,0,44-19.699,44-44S336.308,47.518,312.007,47.518z"/>
<g>
	<path style="fill:#FFB546;" d="M268.007,280.014h16v16h-16V280.014z"/>
	<path style="fill:#FFB546;" d="M156.007,216.014h16v64h-16V216.014z"/>
	<path style="fill:#FFB546;" d="M268.007,192.014h16v72h-16V192.014z"/>
	<path style="fill:#FFB546;" d="M220.007,264.014h16v16h-16V264.014z"/>
	<path style="fill:#FFB546;" d="M196.007,136.014h16v32h-16V136.014z"/>
	<path style="fill:#FFB546;" d="M236.007,136.014h16v72h-16V136.014z"/>
	<path style="fill:#FFB546;" d="M268.007,136.014h16v16h-16V136.014z"/>
	<path style="fill:#FFB546;" d="M196.007,280.014h16v16h-16V280.014z"/>
	<path style="fill:#FFB546;" d="M156.007,160.014h16v32h-16V160.014z"/>
	<path style="fill:#FFB546;" d="M300.007,264.014h16v24h-16V264.014z"/>
</g>
<path style="fill:#168CE3;" d="M212.007,304.014h160v120h-160V304.014z"/>
<path style="fill:#5B5B5B;" d="M330.567,456.014l-6.72-33.568l-15.68,3.136l6.08,30.432h-36.48l6.08-30.432l-15.68-3.136
	l-6.72,33.568h-25.44v16h32h56h32v-16H330.567z"/>
<path style="fill:#C9C9C9;" d="M100.007,280.014h80v184h-80V280.014z"/>
<g>
	<path style="fill:#5B5B5B;" d="M132.007,304.014h16v16h-16V304.014z"/>
	<path style="fill:#5B5B5B;" d="M132.007,336.014h16v16h-16V336.014z"/>
</g>
<path style="fill:#D95354;" d="M140.007,448.014c-13.255,0-24-10.745-24-24s10.745-24,24-24s24,10.745,24,24
	S153.262,448.014,140.007,448.014z M140.007,416.014c-4.418,0-8,3.582-8,8s3.582,8,8,8s8-3.582,8-8S144.425,416.014,140.007,416.014
	z"/>
<path style="fill:#5B5B5B;" d="M212.007,384.014h160v16h-160V384.014z"/>
<g>
	<path style="fill:#FFB546;" d="M300.007,152.014h16v48h-16V152.014z"/>
	<path style="fill:#FFB546;" d="M326.351,181.67l-18.344-18.344l-18.344,18.344l-11.312-11.312l24-24
		c3.124-3.123,8.188-3.123,11.312,0l24,24L326.351,181.67z"/>
	<path style="fill:#FFB546;" d="M196.007,192.014h16v72h-16V192.014z"/>
	<path style="fill:#FFB546;" d="M222.351,221.67l-18.344-18.344l-18.344,18.344l-11.312-11.312l24-24
		c3.124-3.123,8.188-3.123,11.312,0l24,24L222.351,221.67z"/>
	<path style="fill:#FFB546;" d="M300.007,216.014h16v32h-16V216.014z"/>
</g>
<g>
</g>
<g>
</g>
<g>
</g>
<g>
</g>
<g>
</g>
<g>
</g>
<g>
</g>
<g>
</g>
<g>
</g>
<g>
</g>
<g>
</g>
<g>
</g>
<g>
</g>
<g>
</g>
<g>
</g>
</svg>
